<?xml version="1.0" encoding="iso-8859-1"?>
<!-- Uploaded to: SVG Repo, www.svgrepo.com, Generator: SVG Repo Mixer Tools -->
<svg height="800px" width="800px" version="1.1" id="Capa_1" xmlns="http://www.w3.org/2000/svg"
	 viewBox="0 0 484.504 484.504" xml:space="preserve">
<g>
	<g>
		<path style="fill:#010002;" d="M217.495,182.239c4.311-2.849,8.33-5.529,11.979-7.737c8.688-5.25,11.482-16.554,6.214-25.239
			c-5.238-8.689-16.546-11.461-25.228-6.223c-4.053,2.445-8.521,5.403-13.291,8.56c-15.428,10.229-38.895,26.148-52.063,22.426
			c-9.625-2.72-10.786-9.35-13.954-14.155c-6.818-12.582-21.304-20.933-34.394-20.66c0,0-11.675,0-25.898,5.596
			C6.77,167.663,6.599,182.826,6.607,190.242c0.009,6.763,0.148,13.298,19.12,24.331H0.061L0,428.281h160.066l10.625-97.807
			c0,0-53.075-3.91-79.508-7.738c-31.757-4.598-37.31-33.873-37.31-33.873l-16.527-68.152c9.471,4.613,21.767,9.904,38,16.161
			c2.173,0.835,4.403,1.232,6.6,1.232c7.385,0,14.343-4.48,17.161-11.773c3.648-9.479-1.077-20.123-10.55-23.768
			c-9.992-3.85-21.175-8.567-30.436-12.829c1.586-0.731,3.328-1.483,5.045-2.242l25.673,10.199
			c15.497,5.984,19.826,18.521,15.244,30.435c-3.421,8.887-13.746,19.954-31.866,12.799c-5.595-2.208-10.633-4.17-15.406-6.138
			l7.973,51.806c2.271,14.746,11.323,22.381,27.008,26.607c7.576,3.164,89.693,9.396,89.693,9.396
			c-2.765,32.17-8.396,84.957-9.074,91.129c-1.841,12.832,6.466,25.123,19.312,28.02c1.856,0.412,3.714,0.611,5.527,0.611
			c11.468,0,21.809-7.922,24.431-19.574c1.103-4.912,10.737-119.828,10.828-120.973c0.579-6.967-2.082-14.563-6.798-19.717
			c-6.053-6.619-11.479-12.469-75.965-14.654l-8.762-56.881c2.623,0.394,5.247,0.656,7.876,0.656
			C173.806,211.214,198.637,194.748,217.495,182.239z"/>
		<circle style="fill:#010002;" cx="89.108" cy="89.494" r="47.348"/>
		<path style="fill:#010002;" d="M484.446,214.573h-25.668c18.972-11.033,19.112-17.568,19.12-24.331
			c0.008-7.416-0.162-22.579-64.253-45.435c-14.225-5.596-25.897-5.596-25.897-5.596c-13.091-0.273-27.576,8.078-34.394,20.66
			c-3.17,4.805-4.329,11.436-13.954,14.155c-13.169,3.723-36.637-12.197-52.063-22.426c-4.771-3.156-9.238-6.115-13.293-8.56
			c-8.68-5.239-19.988-2.466-25.227,6.223c-5.27,8.685-2.475,19.989,6.214,25.239c3.648,2.208,7.669,4.888,11.979,7.737
			c18.857,12.509,43.688,28.975,68.634,28.975c2.629,0,5.254-0.262,7.876-0.656l-8.761,56.881
			c-64.486,2.186-69.912,8.035-75.966,14.654c-4.717,5.154-7.377,12.75-6.797,19.717c0.091,1.145,9.725,116.061,10.827,120.973
			c2.623,11.652,12.964,19.574,24.432,19.574c1.813,0,3.67-0.199,5.526-0.611c12.845-2.896,21.153-15.188,19.313-28.02
			c-0.68-6.172-6.312-58.959-9.074-91.129c0,0,82.117-6.232,89.693-9.396c15.684-4.227,24.735-11.861,27.008-26.607l7.972-51.806
			c-4.772,1.968-9.813,3.929-15.406,6.138c-18.12,7.154-28.445-3.913-31.866-12.799c-4.583-11.914-0.253-24.451,15.244-30.435
			l25.672-10.199c1.719,0.759,3.46,1.51,5.046,2.242c-9.26,4.262-20.442,8.979-30.435,12.829
			c-9.474,3.645-14.199,14.289-10.551,23.768c2.818,7.293,9.776,11.773,17.16,11.773c2.197,0,4.429-0.397,6.602-1.232
			c16.232-6.256,28.528-11.547,37.999-16.161l-16.527,68.152c0,0-5.553,29.275-37.31,33.873
			c-26.433,3.828-79.507,7.738-79.507,7.738l10.624,97.807h160.066L484.446,214.573z"/>
		<circle style="fill:#010002;" cx="395.399" cy="89.494" r="47.348"/>
	</g>
</g>
</svg>
