<!DOCTYPE svg PUBLIC "-//W3C//DTD SVG 1.1//EN" "http://www.w3.org/Graphics/SVG/1.1/DTD/svg11.dtd">
<!-- Uploaded to: SVG Repo, www.svgrepo.com, Transformed by: SVG Repo Mixer Tools -->
<svg height="800px" width="800px" version="1.1" id="Layer_1" xmlns="http://www.w3.org/2000/svg" xmlns:xlink="http://www.w3.org/1999/xlink" viewBox="-25.22 -25.22 554.76 554.76" xml:space="preserve" fill="#000000" stroke="#000000" stroke-width="0.0050432">
<g id="SVGRepo_bgCarrier" stroke-width="0"/>
<g id="SVGRepo_tracerCarrier" stroke-linecap="round" stroke-linejoin="round" stroke="#f8f7f7" stroke-width="33.28512"> <g transform="translate(1 1)"> <path style="fill:#77269c;" d="M270.36,441.027c8.533-8.533,0-25.6-8.533-34.133c-8.533-8.533-37.547,22.187-25.6,34.133 C244.76,449.56,261.827,449.56,270.36,441.027L270.36,441.027z M395.8,319.853c8.533-25.6,42.667-34.133,25.6-51.2 c-17.067-17.067-51.2,0-59.733,0c-18.773,0-25.6,34.133-42.667,25.6c-17.067-8.533-34.133,8.533-17.067,17.067 c17.067,8.533,34.133,17.067,42.667,25.6S387.267,345.453,395.8,319.853L395.8,319.853z M495.64,217.453 c1.707,11.093,2.56,22.187,2.56,34.133c0,136.533-110.933,247.467-247.467,247.467c-33.28-20.48-78.507-53.76-59.733-98.133 c25.6-59.733,0-76.8-8.533-85.333c-8.533-8.533-25.6-8.533-17.067-34.133S191,264.387,191,221.72s-68.267-34.133-59.733-8.533 c8.533,25.6-8.533,59.733-42.667,85.333S45.934,255.853,63,238.787c11.947-11.947-26.453-17.92-58.027-16.213l5.12-30.72 C36.547,84.333,134.68,4.12,250.734,4.12c20.48,0,40.96,2.56,60.587,7.68c-5.12,23.893,11.947,34.133,11.947,42.667 s0,51.2-17.067,51.2c-17.067,0-59.733,25.6-42.667,51.2c17.067,25.6,25.6,59.733,42.667,51.2 c17.067-8.533,30.72-60.587,42.667-59.733c29.867,1.707,29.867,44.373,46.933,52.907c11.947,5.973,62.293,0,93.867-13.653 L495.64,217.453z"/> <path style="fill:#3a168d;" d="M250.734,499.053c-30.72,0-59.733-7.68-59.733-7.68C83.48,464.92,3.267,367.64,3.267,251.587 c0-10.24,0.853-18.773,1.707-29.013c31.573-1.707,69.12,4.267,58.027,16.213c-17.067,17.067-8.533,85.333,25.6,59.733 s51.2-59.733,42.667-85.333c-8.533-25.6,59.733-34.133,59.733,8.533s-17.067,34.133-25.6,59.733s8.533,25.6,17.067,34.133 C191,324.12,216.6,341.187,191,400.92C172.227,445.294,217.454,478.574,250.734,499.053z M421.4,268.653 c17.067,17.067-17.067,25.6-25.6,51.2c-8.533,25.6-42.667,25.6-51.2,17.067s-25.6-17.067-42.667-25.6 c-17.067-8.533,0-25.6,17.067-17.067c17.067,8.533,23.893-25.6,42.667-25.6C370.2,268.653,404.334,251.587,421.4,268.653z M261.827,406.894c8.533,8.533,17.067,25.6,8.533,34.133c-8.533,8.533-25.6,8.533-34.133,0 C224.28,429.08,253.294,398.36,261.827,406.894z M489.667,186.733c-31.573,13.653-81.92,19.627-93.867,13.653 c-17.067-8.533-17.067-51.2-46.933-52.907c-11.947-0.853-25.6,51.2-42.667,59.733c-17.067,8.533-25.6-25.6-42.667-51.2 s25.6-51.2,42.667-51.2c17.067,0,17.067-42.667,17.067-51.2S306.2,34.84,312.174,10.947c15.36,4.267,33.28,11.093,33.28,11.093 C415.427,51.053,469.187,112.494,489.667,186.733z"/> </g> <path style="fill:#ffffff;" d="M251.734,504.32c-0.853,0-1.707,0-2.56-0.853c-24.747-15.36-82.773-52.907-61.44-103.253 c22.187-52.053,4.267-69.12-5.12-78.507c-0.853-0.853-1.707-1.707-2.56-2.56c-1.707-1.707-4.267-3.413-6.827-4.267 c-7.68-5.12-18.773-11.093-11.093-34.133c3.413-11.093,8.533-16.213,12.8-20.48c6.827-6.827,11.947-12.8,11.947-37.547 c0-13.653-7.68-19.627-14.507-23.04c-11.947-5.12-28.16-2.56-34.133,3.413c-3.413,2.56-4.267,5.973-2.56,9.387 c9.387,27.307-8.533,63.147-44.373,90.453C74.24,315.733,64,307.2,60.587,302.08c-12.8-15.36-13.653-52.907,0-65.707 c0.853-0.853,0.853-0.853,0.853-0.853c-1.707-3.413-23.893-8.533-52.053-7.68c-0.853,8.533-0.853,16.213-0.853,24.747 c0,111.787,75.947,209.067,184.32,236.373c2.56,0.853,3.413,2.56,3.413,5.12c-0.853,2.56-2.56,3.413-5.12,3.413 C78.507,469.333,0,369.493,0,253.44c0-10.24,0.853-19.627,1.707-29.013v-0.853c0-0.853,0.853-0.853,0.853-1.707 c0.853-0.853,0.853-0.853,1.707-0.853H5.12c16.213-0.853,58.027,0,64,12.8c0.853,1.707,1.707,5.973-2.56,10.24 c-10.24,10.24-9.387,42.667,0.853,53.76c1.707,1.707,6.827,8.533,19.627-0.853c32.427-24.747,49.493-57.173,40.96-80.213 c-2.56-6.827-0.853-13.653,5.12-18.773c10.24-8.533,29.013-11.093,43.52-5.12c12.8,5.12,19.627,16.213,19.627,30.72 c0,28.16-7.68,35.84-14.507,43.52c-4.267,4.267-8.533,8.533-11.093,17.92c-5.12,16.213,0,18.773,7.68,23.893 c2.56,1.707,5.973,3.413,8.533,5.973c0.853,0.853,1.707,0.853,1.707,1.707c10.24,9.387,32.427,29.867,7.68,87.893 c-16.213,38.4,19.627,68.267,57.173,92.16c133.12-0.853,242.347-109.227,242.347-243.2c0-11.093-0.853-23.04-2.56-33.28 c0-2.56,1.707-4.267,3.413-5.12c2.56,0,4.267,1.707,5.12,3.413c1.707,11.093,2.56,23.04,2.56,34.987 C503.467,391.68,390.827,504.32,251.734,504.32z M254.294,452.267c-7.68,0-15.36-2.56-20.48-7.68 c-8.533-8.533-2.56-23.893,7.68-33.28c3.413-3.413,7.68-6.827,11.093-7.68c6.827-2.56,11.093,0,12.8,1.707 c10.24,10.24,19.627,29.013,8.533,40.107C269.654,449.707,261.974,452.267,254.294,452.267z M259.414,410.453 c-1.707,0-5.973,1.707-11.093,6.827c-4.267,4.267-6.827,8.533-8.533,12.8c-1.707,4.267-0.853,6.827,0.853,8.533 c6.827,6.827,21.333,6.827,28.16,0c5.973-5.973-0.853-20.48-8.533-28.16H259.414z M362.667,347.307 c-8.533,0-16.213-2.56-20.48-5.973c-7.68-7.68-24.747-16.213-41.813-24.747c-4.267-1.707-6.827-5.12-8.533-7.68 c-1.707-3.413-1.707-6.827,0-10.24c4.267-7.68,17.067-12.8,29.013-6.827c5.12,2.56,9.387-0.853,16.213-9.387 c5.973-7.68,13.653-16.213,23.893-16.213c1.707,0,5.12-0.853,9.387-2.56c14.507-4.267,39.253-11.093,53.76,3.413 c4.267,4.267,5.973,8.533,5.973,12.8c0,7.68-5.973,12.8-12.8,19.627c-6.827,5.973-14.507,13.653-17.067,23.04 c-4.267,11.947-13.653,20.48-27.307,23.893C370.347,347.307,366.08,347.307,362.667,347.307z M310.614,296.96 c-5.12,0-8.533,2.56-10.24,5.12c-0.853,0.853-0.853,1.707,0,2.56c0.853,1.707,2.56,2.56,4.267,3.413 c17.92,8.533,34.987,17.067,43.52,26.453c3.413,3.413,13.653,5.12,23.04,2.56c5.973-1.707,17.067-5.973,21.333-17.92 c4.267-11.947,12.8-20.48,19.627-26.453c5.12-5.12,10.24-10.24,10.24-13.653c0-1.707-0.853-4.267-3.413-5.973 c-11.093-11.093-31.573-5.12-45.227-1.707c-5.12,1.707-9.387,2.56-11.947,2.56c-6.827,0-11.947,5.973-17.92,12.8 c-6.827,7.68-14.507,17.92-26.453,11.947C315.734,297.813,313.174,296.96,310.614,296.96z M301.227,214.187 c-11.947,0-19.627-15.36-27.307-31.573c-4.267-7.68-8.533-16.213-12.8-23.04c-5.973-8.533-5.973-18.773-0.853-28.16 c9.387-17.067,34.987-29.867,46.933-29.867c5.973,0,12.8-11.947,12.8-46.933c0-1.707-1.707-4.267-3.413-7.68 c-4.267-6.827-10.24-17.067-8.533-31.573c-17.92-4.267-36.693-6.827-55.467-6.827C140.8,8.533,43.52,84.48,16.214,192.853 c-0.853,2.56-2.56,3.413-5.12,3.413c-2.56-0.853-3.413-2.56-3.413-5.12C35.84,78.507,135.68,0,251.734,0 c20.48,0,41.813,2.56,61.44,7.68c2.56,0.853,3.413,2.56,3.413,5.12c-3.413,13.653,2.56,22.187,6.827,29.867 c2.56,4.267,5.12,7.68,5.12,11.947c0,36.693-6.827,55.467-21.333,55.467c-10.24,0-32.427,11.093-40.107,25.6 c-3.413,6.827-3.413,12.8,0.853,19.627c5.12,7.68,9.387,16.213,13.653,23.893c10.24,20.48,16.213,29.013,23.893,25.6 c7.68-3.413,15.36-19.627,21.333-31.573c7.68-16.213,14.507-28.16,23.04-28.16l0,0c20.48,0.853,29.013,18.773,35.84,33.28 c4.267,8.533,7.68,17.067,13.653,19.627c9.387,5.12,54.613,0,87.04-11.947C465.92,115.2,413.014,56.32,344.747,28.16 c-2.56-0.853-3.413-3.413-2.56-5.973c0.853-2.56,3.413-3.413,5.973-2.56c72.533,29.867,127.147,92.16,147.627,167.253v0.853 c0,0.853,0,0.853,0,1.707c0,0.853-0.853,0.853-0.853,1.707l0,0l0,0L494.08,192c-31.573,13.653-83.627,20.48-97.28,13.653 c-8.533-4.267-12.8-13.653-17.067-23.893c-5.973-13.653-12.8-27.307-28.16-28.16c-3.413,0-11.093,15.36-15.36,23.893 c-7.68,15.36-15.36,30.72-25.6,35.84C306.347,213.333,303.787,214.187,301.227,214.187z"/> </g>
<g id="SVGRepo_iconCarrier"> <g transform="translate(1 1)"> <path style="fill:#77269c;" d="M270.36,441.027c8.533-8.533,0-25.6-8.533-34.133c-8.533-8.533-37.547,22.187-25.6,34.133 C244.76,449.56,261.827,449.56,270.36,441.027L270.36,441.027z M395.8,319.853c8.533-25.6,42.667-34.133,25.6-51.2 c-17.067-17.067-51.2,0-59.733,0c-18.773,0-25.6,34.133-42.667,25.6c-17.067-8.533-34.133,8.533-17.067,17.067 c17.067,8.533,34.133,17.067,42.667,25.6S387.267,345.453,395.8,319.853L395.8,319.853z M495.64,217.453 c1.707,11.093,2.56,22.187,2.56,34.133c0,136.533-110.933,247.467-247.467,247.467c-33.28-20.48-78.507-53.76-59.733-98.133 c25.6-59.733,0-76.8-8.533-85.333c-8.533-8.533-25.6-8.533-17.067-34.133S191,264.387,191,221.72s-68.267-34.133-59.733-8.533 c8.533,25.6-8.533,59.733-42.667,85.333S45.934,255.853,63,238.787c11.947-11.947-26.453-17.92-58.027-16.213l5.12-30.72 C36.547,84.333,134.68,4.12,250.734,4.12c20.48,0,40.96,2.56,60.587,7.68c-5.12,23.893,11.947,34.133,11.947,42.667 s0,51.2-17.067,51.2c-17.067,0-59.733,25.6-42.667,51.2c17.067,25.6,25.6,59.733,42.667,51.2 c17.067-8.533,30.72-60.587,42.667-59.733c29.867,1.707,29.867,44.373,46.933,52.907c11.947,5.973,62.293,0,93.867-13.653 L495.64,217.453z"/> <path style="fill:#3a168d;" d="M250.734,499.053c-30.72,0-59.733-7.68-59.733-7.68C83.48,464.92,3.267,367.64,3.267,251.587 c0-10.24,0.853-18.773,1.707-29.013c31.573-1.707,69.12,4.267,58.027,16.213c-17.067,17.067-8.533,85.333,25.6,59.733 s51.2-59.733,42.667-85.333c-8.533-25.6,59.733-34.133,59.733,8.533s-17.067,34.133-25.6,59.733s8.533,25.6,17.067,34.133 C191,324.12,216.6,341.187,191,400.92C172.227,445.294,217.454,478.574,250.734,499.053z M421.4,268.653 c17.067,17.067-17.067,25.6-25.6,51.2c-8.533,25.6-42.667,25.6-51.2,17.067s-25.6-17.067-42.667-25.6 c-17.067-8.533,0-25.6,17.067-17.067c17.067,8.533,23.893-25.6,42.667-25.6C370.2,268.653,404.334,251.587,421.4,268.653z M261.827,406.894c8.533,8.533,17.067,25.6,8.533,34.133c-8.533,8.533-25.6,8.533-34.133,0 C224.28,429.08,253.294,398.36,261.827,406.894z M489.667,186.733c-31.573,13.653-81.92,19.627-93.867,13.653 c-17.067-8.533-17.067-51.2-46.933-52.907c-11.947-0.853-25.6,51.2-42.667,59.733c-17.067,8.533-25.6-25.6-42.667-51.2 s25.6-51.2,42.667-51.2c17.067,0,17.067-42.667,17.067-51.2S306.2,34.84,312.174,10.947c15.36,4.267,33.28,11.093,33.28,11.093 C415.427,51.053,469.187,112.494,489.667,186.733z"/> </g> <path style="fill:#ffffff;" d="M251.734,504.32c-0.853,0-1.707,0-2.56-0.853c-24.747-15.36-82.773-52.907-61.44-103.253 c22.187-52.053,4.267-69.12-5.12-78.507c-0.853-0.853-1.707-1.707-2.56-2.56c-1.707-1.707-4.267-3.413-6.827-4.267 c-7.68-5.12-18.773-11.093-11.093-34.133c3.413-11.093,8.533-16.213,12.8-20.48c6.827-6.827,11.947-12.8,11.947-37.547 c0-13.653-7.68-19.627-14.507-23.04c-11.947-5.12-28.16-2.56-34.133,3.413c-3.413,2.56-4.267,5.973-2.56,9.387 c9.387,27.307-8.533,63.147-44.373,90.453C74.24,315.733,64,307.2,60.587,302.08c-12.8-15.36-13.653-52.907,0-65.707 c0.853-0.853,0.853-0.853,0.853-0.853c-1.707-3.413-23.893-8.533-52.053-7.68c-0.853,8.533-0.853,16.213-0.853,24.747 c0,111.787,75.947,209.067,184.32,236.373c2.56,0.853,3.413,2.56,3.413,5.12c-0.853,2.56-2.56,3.413-5.12,3.413 C78.507,469.333,0,369.493,0,253.44c0-10.24,0.853-19.627,1.707-29.013v-0.853c0-0.853,0.853-0.853,0.853-1.707 c0.853-0.853,0.853-0.853,1.707-0.853H5.12c16.213-0.853,58.027,0,64,12.8c0.853,1.707,1.707,5.973-2.56,10.24 c-10.24,10.24-9.387,42.667,0.853,53.76c1.707,1.707,6.827,8.533,19.627-0.853c32.427-24.747,49.493-57.173,40.96-80.213 c-2.56-6.827-0.853-13.653,5.12-18.773c10.24-8.533,29.013-11.093,43.52-5.12c12.8,5.12,19.627,16.213,19.627,30.72 c0,28.16-7.68,35.84-14.507,43.52c-4.267,4.267-8.533,8.533-11.093,17.92c-5.12,16.213,0,18.773,7.68,23.893 c2.56,1.707,5.973,3.413,8.533,5.973c0.853,0.853,1.707,0.853,1.707,1.707c10.24,9.387,32.427,29.867,7.68,87.893 c-16.213,38.4,19.627,68.267,57.173,92.16c133.12-0.853,242.347-109.227,242.347-243.2c0-11.093-0.853-23.04-2.56-33.28 c0-2.56,1.707-4.267,3.413-5.12c2.56,0,4.267,1.707,5.12,3.413c1.707,11.093,2.56,23.04,2.56,34.987 C503.467,391.68,390.827,504.32,251.734,504.32z M254.294,452.267c-7.68,0-15.36-2.56-20.48-7.68 c-8.533-8.533-2.56-23.893,7.68-33.28c3.413-3.413,7.68-6.827,11.093-7.68c6.827-2.56,11.093,0,12.8,1.707 c10.24,10.24,19.627,29.013,8.533,40.107C269.654,449.707,261.974,452.267,254.294,452.267z M259.414,410.453 c-1.707,0-5.973,1.707-11.093,6.827c-4.267,4.267-6.827,8.533-8.533,12.8c-1.707,4.267-0.853,6.827,0.853,8.533 c6.827,6.827,21.333,6.827,28.16,0c5.973-5.973-0.853-20.48-8.533-28.16H259.414z M362.667,347.307 c-8.533,0-16.213-2.56-20.48-5.973c-7.68-7.68-24.747-16.213-41.813-24.747c-4.267-1.707-6.827-5.12-8.533-7.68 c-1.707-3.413-1.707-6.827,0-10.24c4.267-7.68,17.067-12.8,29.013-6.827c5.12,2.56,9.387-0.853,16.213-9.387 c5.973-7.68,13.653-16.213,23.893-16.213c1.707,0,5.12-0.853,9.387-2.56c14.507-4.267,39.253-11.093,53.76,3.413 c4.267,4.267,5.973,8.533,5.973,12.8c0,7.68-5.973,12.8-12.8,19.627c-6.827,5.973-14.507,13.653-17.067,23.04 c-4.267,11.947-13.653,20.48-27.307,23.893C370.347,347.307,366.08,347.307,362.667,347.307z M310.614,296.96 c-5.12,0-8.533,2.56-10.24,5.12c-0.853,0.853-0.853,1.707,0,2.56c0.853,1.707,2.56,2.56,4.267,3.413 c17.92,8.533,34.987,17.067,43.52,26.453c3.413,3.413,13.653,5.12,23.04,2.56c5.973-1.707,17.067-5.973,21.333-17.92 c4.267-11.947,12.8-20.48,19.627-26.453c5.12-5.12,10.24-10.24,10.24-13.653c0-1.707-0.853-4.267-3.413-5.973 c-11.093-11.093-31.573-5.12-45.227-1.707c-5.12,1.707-9.387,2.56-11.947,2.56c-6.827,0-11.947,5.973-17.92,12.8 c-6.827,7.68-14.507,17.92-26.453,11.947C315.734,297.813,313.174,296.96,310.614,296.96z M301.227,214.187 c-11.947,0-19.627-15.36-27.307-31.573c-4.267-7.68-8.533-16.213-12.8-23.04c-5.973-8.533-5.973-18.773-0.853-28.16 c9.387-17.067,34.987-29.867,46.933-29.867c5.973,0,12.8-11.947,12.8-46.933c0-1.707-1.707-4.267-3.413-7.68 c-4.267-6.827-10.24-17.067-8.533-31.573c-17.92-4.267-36.693-6.827-55.467-6.827C140.8,8.533,43.52,84.48,16.214,192.853 c-0.853,2.56-2.56,3.413-5.12,3.413c-2.56-0.853-3.413-2.56-3.413-5.12C35.84,78.507,135.68,0,251.734,0 c20.48,0,41.813,2.56,61.44,7.68c2.56,0.853,3.413,2.56,3.413,5.12c-3.413,13.653,2.56,22.187,6.827,29.867 c2.56,4.267,5.12,7.68,5.12,11.947c0,36.693-6.827,55.467-21.333,55.467c-10.24,0-32.427,11.093-40.107,25.6 c-3.413,6.827-3.413,12.8,0.853,19.627c5.12,7.68,9.387,16.213,13.653,23.893c10.24,20.48,16.213,29.013,23.893,25.6 c7.68-3.413,15.36-19.627,21.333-31.573c7.68-16.213,14.507-28.16,23.04-28.16l0,0c20.48,0.853,29.013,18.773,35.84,33.28 c4.267,8.533,7.68,17.067,13.653,19.627c9.387,5.12,54.613,0,87.04-11.947C465.92,115.2,413.014,56.32,344.747,28.16 c-2.56-0.853-3.413-3.413-2.56-5.973c0.853-2.56,3.413-3.413,5.973-2.56c72.533,29.867,127.147,92.16,147.627,167.253v0.853 c0,0.853,0,0.853,0,1.707c0,0.853-0.853,0.853-0.853,1.707l0,0l0,0L494.08,192c-31.573,13.653-83.627,20.48-97.28,13.653 c-8.533-4.267-12.8-13.653-17.067-23.893c-5.973-13.653-12.8-27.307-28.16-28.16c-3.413,0-11.093,15.36-15.36,23.893 c-7.68,15.36-15.36,30.72-25.6,35.84C306.347,213.333,303.787,214.187,301.227,214.187z"/> </g>
</svg>