<svg width="36" height="36" viewBox="0 0 36 36" fill="none" xmlns="http://www.w3.org/2000/svg">
    <circle cx="18" cy="18" r="18" fill="url(#paint0_linear_152_935)"/>
    <circle cx="18" cy="18" r="15.1071" fill="#C49951"/>
    <circle cx="18" cy="18" r="14.1429" fill="url(#paint1_linear_152_935)"/>
    <circle cx="18" cy="18" r="11.8929" fill="url(#paint2_linear_152_935)"/>
    <g filter="url(#filter0_i_152_935)">
        <path d="M23.5039 12.9375C23.6389 12.9375 23.7064 13.005 23.7064 13.14V13.545C23.7064 13.68 23.6389 13.7475 23.5039 13.7475C23.1709 13.7475 22.9234 13.869 22.7614 14.112C22.5994 14.355 22.5184 14.661 22.5184 15.03V22.86C22.5184 22.995 22.4509 23.0625 22.3159 23.0625H21.3844C21.2944 23.0625 21.2134 23.022 21.1414 22.941L14.7559 15.597V20.97C14.7559 21.33 14.8369 21.636 14.9989 21.888C15.1699 22.131 15.4219 22.2525 15.7549 22.2525C15.8899 22.2525 15.9574 22.32 15.9574 22.455V22.86C15.9574 22.995 15.8899 23.0625 15.7549 23.0625H12.4204C12.2854 23.0625 12.2179 22.995 12.2179 22.86V22.455C12.2179 22.32 12.2854 22.2525 12.4204 22.2525C12.7534 22.2525 13.0009 22.131 13.1629 21.888C13.3249 21.636 13.4059 21.33 13.4059 20.97V14.085C13.2709 13.968 13.1359 13.8825 13.0009 13.8285C12.8749 13.7745 12.7264 13.7475 12.5554 13.7475C12.4204 13.7475 12.3529 13.68 12.3529 13.545V13.14C12.3529 13.005 12.4204 12.9375 12.5554 12.9375H14.8909C14.9899 12.9375 15.0709 12.978 15.1339 13.059L21.1684 19.944V15.03C21.1684 14.661 21.0829 14.355 20.9119 14.112C20.7499 13.869 20.5024 13.7475 20.1694 13.7475C20.0344 13.7475 19.9669 13.68 19.9669 13.545V13.14C19.9669 13.005 20.0344 12.9375 20.1694 12.9375H23.5039Z"
              fill="#C49951"/>
    </g>
    <defs>
        <filter id="filter0_i_152_935" x="12.2179" y="12.9375" width="11.4885" height="11.125"
                filterUnits="userSpaceOnUse" color-interpolation-filters="sRGB">
            <feFlood flood-opacity="0" result="BackgroundImageFix"/>
            <feBlend mode="normal" in="SourceGraphic" in2="BackgroundImageFix" result="shape"/>
            <feColorMatrix in="SourceAlpha" type="matrix" values="0 0 0 0 0 0 0 0 0 0 0 0 0 0 0 0 0 0 127 0"
                           result="hardAlpha"/>
            <feOffset dy="1"/>
            <feGaussianBlur stdDeviation="0.5"/>
            <feComposite in2="hardAlpha" operator="arithmetic" k2="-1" k3="1"/>
            <feColorMatrix type="matrix" values="0 0 0 0 0 0 0 0 0 0 0 0 0 0 0 0 0 0 0.25 0"/>
            <feBlend mode="normal" in2="shape" result="effect1_innerShadow_152_935"/>
        </filter>
        <linearGradient id="paint0_linear_152_935" x1="0" y1="0" x2="36" y2="36" gradientUnits="userSpaceOnUse">
            <stop offset="0.276042" stop-color="#FFD992"/>
            <stop offset="0.682292" stop-color="#E1B15E"/>
        </linearGradient>
        <linearGradient id="paint1_linear_152_935" x1="3.85718" y1="3.85718" x2="32.1429" y2="32.1429"
                        gradientUnits="userSpaceOnUse">
            <stop stop-color="#DEB35F"/>
            <stop offset="1" stop-color="#CDA155"/>
        </linearGradient>
        <linearGradient id="paint2_linear_152_935" x1="6.10718" y1="6.10718" x2="29.8929" y2="29.8929"
                        gradientUnits="userSpaceOnUse">
            <stop offset="0.276042" stop-color="#FFD992"/>
            <stop offset="0.682292" stop-color="#E1B15E"/>
        </linearGradient>
    </defs>
</svg>
