<svg width="24" height="24" viewBox="0 0 24 24" fill="none" xmlns="http://www.w3.org/2000/svg">
    <path d="M4 16L3.29289 15.2929L3 15.5858V16H4ZM17 3L17.7071 2.29289C17.3166 1.90237 16.6834 1.90237 16.2929 2.29289L17 3ZM21 7L21.7071 7.70711C22.0976 7.31658 22.0976 6.68342 21.7071 6.29289L21 7ZM8 20V21H8.41421L8.70711 20.7071L8 20ZM4 20H3C3 20.5523 3.44772 21 4 21V20ZM4.70711 16.7071L17.7071 3.70711L16.2929 2.29289L3.29289 15.2929L4.70711 16.7071ZM16.2929 3.70711L20.2929 7.70711L21.7071 6.29289L17.7071 2.29289L16.2929 3.70711ZM20.2929 6.29289L7.29289 19.2929L8.70711 20.7071L21.7071 7.70711L20.2929 6.29289ZM8 19H4V21H8V19ZM5 20V16H3V20H5ZM13.2929 6.70711L17.2929 10.7071L18.7071 9.29289L14.7071 5.29289L13.2929 6.70711Z"
          fill="currentColor"/>
</svg>
