<svg xmlns="http://www.w3.org/2000/svg"
     version="1.1" baseProfile="full" viewBox="65.9 52.2 368.2 495.61">
    <g transform="translate(0,-452.36218)">
        <g transform="translate(-2.3597075,3.517025)">
            <path d="m 68.259365,765.65729 62.292485,0 0,-221.20667 c -10.72395,-1.86518 -20.75354,-4.31473 -30.08881,-7.34863 -9.335366,-3.03298 -18.439259,-6.41535 -27.311707,-10.14709 l 0,-20.31556 62.997437,0 c 18.67055,4.9e-4 38.38794,-0.93233 59.15222,-2.79846 20.764,-1.86515 41.17922,-2.79796 61.24573,-2.79846 22.87168,5e-4 45.15966,2.3361 66.86401,7.00684 21.70381,4.6717 40.95479,12.60423 57.75299,23.7976 16.79755,11.1943 30.21306,26.35796 40.24659,45.49103 10.03278,19.13391 15.04936,43.17003 15.04974,72.10846 -3.8e-4,27.52921 -5.25195,50.97788 -15.7547,70.34607 -10.50349,19.36875 -24.85539,35.11987 -43.05573,47.25342 -18.20099,12.134 -39.43154,20.99935 -63.69171,26.59607 -24.26069,5.59712 -49.92748,8.39558 -77.00042,8.39538 l -39.19983,0 0,48.30017 138.59863,0 0,36.40137 -138.59863,0 0,72.80273 c 12.6036,1.40995 24.50595,3.63163 35.70709,6.66504 11.20077,3.03348 21.70034,6.41584 31.49872,10.1471 l 0,20.29419 -191.812137,0 0,-20.29419 c 9.342418,-4.6712 18.912721,-8.17461 28.710937,-10.51026 9.79812,-2.33557 19.3613,-4.4362 28.68958,-6.30188 l 0,-72.80273 -62.292485,0 0,-36.40137 62.292485,0 0,-48.30017 -62.292485,0 z M 242.55441,537.44379 c -11.19403,4.6e-4 -19.94188,0.23544 -26.24359,0.70495 -6.30204,0.47043 -12.48642,1.40325 -18.55316,2.79846 l 0,224.71009 40.60974,0 c 17.73051,2.3e-4 34.17947,-2.1004 49.34692,-6.30188 15.16699,-4.20101 28.23358,-10.9693 39.19983,-20.30487 10.9657,-9.33506 19.48213,-21.35135 25.54932,-36.04889 6.06659,-14.69696 9.10003,-32.54871 9.10034,-53.5553 -3.1e-4,-38.26662 -10.38594,-66.50044 -31.15692,-84.70154 -20.77154,-18.20023 -50.05567,-27.30056 -87.85248,-27.30102 z"/>
        </g>
    </g>
</svg>