<svg width="24" height="24" viewBox="0 0 24 24" fill="none" xmlns="http://www.w3.org/2000/svg">
    <path d="M5.5 19.5C7.83333 18.5 9.33333 17.6667 10 17C11 16 8 16 8 11C8 7.66667 9.33333 6 12 6C14.6667 6 16 7.66667 16 11C16 16 13 16 14 17C14.6667 17.6667 16.1667 18.5 18.5 19.5"
          stroke="#A8ACC0" stroke-width="2" stroke-linecap="round"/>
    <path d="M12 22C17.5228 22 22 17.5228 22 12C22 6.47715 17.5228 2 12 2C6.47715 2 2 6.47715 2 12C2 17.5228 6.47715 22 12 22Z"
          stroke="#A8ACC0" stroke-width="2" stroke-linecap="square"/>
</svg>
