<svg width="24" height="24" viewBox="0 0 24 24" fill="none" xmlns="http://www.w3.org/2000/svg">
    <path d="M20 9C20 9 19.6797 9.66735 19 10.5144M19 10.5144C18.3535 11.3202 17.3818 12.2887 16.0514 13M19 10.5144L22 12M12 14C10.392 14 9.04786 13.5878 7.94861 13M12 14C13.608 14 14.9521 13.5878 16.0514 13M12 14V17.5M7.94861 13L5 16M7.94861 13C6.6892 12.3266 5.75124 11.4228 5.10628 10.6448M16.0514 13L18.5 16M4 9C4 9 4.35367 9.73682 5.10628 10.6448M5.10628 10.6448L2 12"
          stroke="#2941CC" stroke-width="2" stroke-linecap="round" stroke-linejoin="round"/>
</svg>
